<svg width="60" height="60" viewBox="0 0 1138 1132" fill="none" xmlns="http://www.w3.org/2000/svg">
<circle cx="586.081" cy="551" r="551" fill="#C2FBFF"/>
<path d="M516.081 625.5C726.985 844.87 1187.33 737.3 967.957 948.205C748.587 1159.11 399.78 1152.25 188.876 932.876C-22.0283 713.506 -15.1654 364.699 204.205 153.795C423.575 -57.1092 305.176 406.13 516.081 625.5Z" fill="#71E2F0"/>
<path d="M1034.51 352.27L447.174 352.495L455.486 259.278H285.351V324.278H335.239H384.431L381.732 354.565L367.725 511.675H85.0808V576.675H361.931L357.648 624.719H228.61V689.719H351.853L349.183 719.665H903.074L1034.51 352.27ZM420.236 654.666L427.189 576.676H480.384V511.676H432.984L441.38 417.497L942.214 417.306L857.295 654.666H420.236Z" fill="#0C3763"/>
<path d="M712.08 914.956C728.816 934.783 754.126 946.155 781.522 946.155C835.21 946.155 884.401 904.27 893.507 850.8C898.212 823.178 891.188 795.817 874.235 775.732C857.499 755.905 832.189 744.533 804.793 744.533H430.343C376.655 744.533 327.464 786.418 318.357 839.887C313.652 867.51 320.677 894.872 337.63 914.957C354.366 934.784 379.676 946.156 407.071 946.156C460.759 946.156 509.949 904.271 519.056 850.801C521.464 836.662 520.792 822.594 517.295 809.532H702.752C698.032 819.03 694.62 829.227 692.804 839.886C688.102 867.509 695.126 894.87 712.08 914.956ZM450.114 817.656C454.757 823.157 456.486 831.052 454.981 839.885C451.236 861.869 428.848 881.156 407.072 881.156C398.625 881.156 391.788 878.345 387.301 873.031C382.657 867.53 380.929 859.635 382.434 850.801C386.179 828.818 408.567 809.532 430.343 809.532C438.79 809.531 445.627 812.341 450.114 817.656ZM824.564 817.656C829.207 823.157 830.936 831.052 829.43 839.885C825.686 861.869 803.298 881.156 781.522 881.156C773.074 881.156 766.238 878.345 761.751 873.031C757.107 867.53 755.379 859.635 756.884 850.801C760.629 828.818 783.016 809.532 804.793 809.532C813.24 809.531 820.077 812.341 824.564 817.656Z" fill="#366796"/>
<path d="M338.76 402.902H164.032V467.902H338.76V402.902Z" fill="#5488A8"/>
</svg>
